HIERARCHY
ROOT Hips
{
 OFFSET 0.000000 0.000000 0.000000
 CHANNELS 6 Xposition Yposition Zposition Yrotation Xrotation Zrotation
 JOINT Chest
 {
  OFFSET 0.000000 9.585900 0.002600
  CHANNELS 3 Yrotation Xrotation Zrotation
  JOINT Chest2
  {
   OFFSET 0.000000 9.601200 -0.005300
   CHANNELS 3 Yrotation Xrotation Zrotation
   JOINT Chest3
   {
    OFFSET 0.000000 9.561800 0.000000
    CHANNELS 3 Yrotation Xrotation Zrotation
    JOINT Chest4
    {
     OFFSET 0.000000 9.552100 0.000000
     CHANNELS 3 Yrotation Xrotation Zrotation
     JOINT Neck
     {
      OFFSET 0.000000 14.453000 0.000000
      CHANNELS 3 Yrotation Xrotation Zrotation
      JOINT Head
      {
       OFFSET 0.000000 8.936500 -0.011300
       CHANNELS 3 Yrotation Xrotation Zrotation
       End Site
       {
        OFFSET 0.000000 17.073600 -0.006000
       }
      }
     }
     JOINT RightCollar
     {
      OFFSET -2.921100 9.558500 0.000000
      CHANNELS 3 Yrotation Xrotation Zrotation
      JOINT RightShoulder
      {
       OFFSET -13.519700 0.000000 0.000000
       CHANNELS 3 Yrotation Xrotation Zrotation
       JOINT RightElbow
       {
        OFFSET 0.000000 -29.696600 0.000000
        CHANNELS 3 Yrotation Xrotation Zrotation
        JOINT RightWrist
        {
         OFFSET 0.000000 -24.004700 0.000000
         CHANNELS 3 Yrotation Xrotation Zrotation
         End Site
         {
          OFFSET 0.000000 -17.728500 0.000000
         }
        }
       }
      }
     }
     JOINT LeftCollar
     {
      OFFSET 2.921100 9.558500 0.000000
      CHANNELS 3 Yrotation Xrotation Zrotation
      JOINT LeftShoulder
      {
       OFFSET 13.519700 0.000000 0.000000
       CHANNELS 3 Yrotation Xrotation Zrotation
       JOINT LeftElbow
       {
        OFFSET 0.000000 -29.696600 0.000000
        CHANNELS 3 Yrotation Xrotation Zrotation
        JOINT LeftWrist
        {
         OFFSET 0.000000 -24.004700 0.000000
         CHANNELS 3 Yrotation Xrotation Zrotation
         End Site
         {
          OFFSET 0.000000 -17.728500 0.000000
         }
        }
       }
      }
     }
    }
   }
  }
 }
 JOINT RightHip
 {
  OFFSET -7.771700 -0.012900 -0.001300
  CHANNELS 3 Yrotation Xrotation Zrotation
  JOINT RightKnee
  {
   OFFSET 0.000000 -40.869800 0.001200
   CHANNELS 3 Yrotation Xrotation Zrotation
   JOINT RightAnkle
   {
    OFFSET 0.000000 -39.717900 0.002100
    CHANNELS 3 Yrotation Xrotation Zrotation
    JOINT RightToe
    {
     OFFSET 0.000000 -4.965400 11.033500
     CHANNELS 3 Yrotation Xrotation Zrotation
     End Site
     {
      OFFSET 0.000000 -1.423100 5.872300
     }
    }
   }
  }
 }
 JOINT LeftHip
 {
  OFFSET 7.771700 -0.012900 -0.001300
  CHANNELS 3 Yrotation Xrotation Zrotation
  JOINT LeftKnee
  {
   OFFSET 0.000000 -40.869800 0.001200
   CHANNELS 3 Yrotation Xrotation Zrotation
   JOINT LeftAnkle
   {
    OFFSET 0.000000 -39.717900 0.002100
    CHANNELS 3 Yrotation Xrotation Zrotation
    JOINT LeftToe
    {
     OFFSET 0.000000 -4.965400 11.033500
     CHANNELS 3 Yrotation Xrotation Zrotation
     End Site
     {
      OFFSET 0.000000 -1.423100 5.872300
     }
    }
   }
  }
 }
}
MOTION
Frames: 8
Frame Time: 0.008333
-25.483129 50.672514 21.191263 162.458402 -3.919367 -1.902324 2.863606 5.557621 0.600124 0.096487 0.205679 -0.009944 0.158120 0.365753 -0.023701 2.488663 5.352750 -0.153594 5.527872 19.495816 0.755083 9.807239 0.533469 -0.323146 1.822943 6.729195 1.054298 -5.488854 -10.311110 -8.274312 -8.054935 -77.936775 28.735039 -2.835865 -5.466494 -38.524711 -5.518499 3.172398 -0.515946 20.721834 -8.255322 0.719715 38.694717 -76.535426 -57.481371 3.001684 1.899141 21.003630 -12.237458 -75.332837 9.667204 -141.894108 83.335906 -141.031776 -5.649416 -17.334064 0.067480 -0.190109 0.656366 -0.121063 -18.236645 -80.528611 37.348690 107.936581 79.240476 104.023968 -15.127591 -24.114115 2.641134 -0.299201 -1.118177 -0.131895
-25.483072 50.669400 21.193398 162.475340 -3.928690 -1.881647 2.862804 5.563618 0.589890 0.102576 0.204138 -0.006852 0.146462 0.369295 -0.029608 2.505421 5.350973 -0.146667 5.348321 19.504540 0.725533 9.491494 0.541649 -0.327285 1.818804 6.729178 1.051437 -5.494480 -10.326037 -8.330573 -8.121907 -77.963728 28.829879 -2.828186 -5.471305 -38.516205 -5.506635 3.176344 -0.521963 20.714524 -8.277184 0.723518 38.773293 -76.663520 -57.612223 2.962006 1.942806 20.895457 -12.229445 -75.332158 9.624006 -142.020217 83.337561 -141.163647 -5.637390 -17.332974 0.064137 -0.199362 0.652695 -0.129139 -18.092304 -80.532864 37.196904 107.944673 79.243644 104.030740 -15.128954 -24.108483 2.645620 -0.324074 -1.121995 -0.136971
-25.485873 50.666148 21.194529 162.507835 -3.939366 -1.844416 2.832874 5.575598 0.554511 0.120860 0.199044 0.002471 0.146210 0.370134 -0.029247 2.507328 5.353769 -0.142273 5.147923 19.510526 0.688816 9.136850 0.541983 -0.330145 1.818285 6.724216 1.048429 -5.511059 -10.338439 -8.383186 -7.960149 -78.040604 28.741216 -2.872831 -5.450811 -38.544946 -5.494626 3.175431 -0.529711 20.707062 -8.291300 0.729093 38.847806 -76.798148 -57.730787 2.921997 1.997148 20.793244 -12.245723 -75.332670 9.556709 -142.367664 83.348670 -141.509569 -5.623544 -17.339409 0.032518 -0.213927 0.649972 -0.129128 -17.871468 -80.535739 36.947139 107.918170 79.236800 103.995831 -15.137307 -24.104615 2.648854 -0.364951 -1.122053 -0.142185
-25.487212 50.662951 21.197147 162.533689 -3.945635 -1.818281 2.846589 5.571407 0.551327 0.097351 0.206193 -0.008471 0.177095 0.363737 -0.015026 2.481829 5.362864 -0.149989 4.926692 19.513773 0.649356 8.741187 0.529481 -0.327610 1.805936 6.722316 1.042053 -5.507416 -10.354160 -8.433277 -8.062785 -78.036520 28.853592 -2.835945 -5.467574 -38.524762 -5.439066 3.169429 -0.534749 20.668387 -8.306525 0.745666 38.887100 -76.918956 -57.822475 2.880374 2.050220 20.701023 -12.231614 -75.336814 9.485810 -142.570089 83.353119 -141.701713 -5.622053 -17.339826 0.011972 -0.209022 0.652169 -0.118207 -17.704545 -80.538934 36.766139 107.887116 79.230609 103.953748 -15.149610 -24.111970 2.640364 -0.393658 -1.108754 -0.128089
-25.481921 50.660213 21.199878 162.546817 -3.964676 -1.829919 2.865355 5.582843 0.578792 0.073490 0.211662 -0.018065 0.195742 0.362118 -0.008929 2.486134 5.369136 -0.146475 4.680980 19.508149 0.608499 8.306935 0.505015 -0.319852 1.792177 6.714010 1.038901 -5.502195 -10.363967 -8.473279 -7.975779 -78.071457 28.795204 -2.839164 -5.465580 -38.530916 -5.429952 3.162708 -0.540257 20.636407 -8.305752 0.747932 38.904289 -77.062231 -57.850544 2.839712 2.097181 20.616383 -12.337693 -75.319064 9.546502 -142.803231 83.361145 -141.904797 -5.625000 -17.328843 -0.031108 -0.190504 0.636981 -0.110018 -17.709327 -80.514697 36.792711 107.884591 79.244167 103.931125 -15.156751 -24.143083 2.648265 -0.370314 -1.076634 -0.120288
-25.480849 50.657453 21.202070 162.557394 -3.980004 -1.817163 2.879429 5.594608 0.577609 0.071604 0.211299 -0.019268 0.198582 0.364514 -0.007836 2.488029 5.377697 -0.150494 4.420607 19.495820 0.573884 7.837016 0.473196 -0.309988 1.802550 6.697999 1.050852 -5.531130 -10.360391 -8.495563 -7.884859 -78.097210 28.721819 -2.817126 -5.464890 -38.517505 -5.421927 3.153526 -0.539990 20.621096 -8.311705 0.759959 38.869142 -77.190391 -57.834739 2.807099 2.137498 20.545460 -12.357819 -75.311474 9.532946 -142.953958 83.363621 -142.055316 -5.614017 -17.318987 -0.029153 -0.195352 0.628621 -0.123551 -17.587946 -80.503393 36.680786 107.888878 79.249426 103.917358 -15.147802 -24.162885 2.657536 -0.319867 -1.064897 -0.116363
-25.482655 50.654777 21.203154 162.573157 -3.996868 -1.787524 2.888036 5.607951 0.559737 0.070024 0.214513 -0.019374 0.201194 0.363434 -0.007770 2.524524 5.393435 -0.140404 4.104081 19.476395 0.525510 7.334729 0.438647 -0.299574 1.776728 6.679023 1.048807 -5.529942 -10.370681 -8.554767 -7.883470 -78.118282 28.730608 -2.820244 -5.451293 -38.518261 -5.469666 3.138845 -0.551553 20.619221 -8.320668 0.769831 38.794726 -77.311983 -57.770571 2.781848 2.176573 20.493679 -12.312641 -75.305508 9.446456 -143.119496 83.366572 -142.219557 -5.607736 -17.321038 -0.041466 -0.195880 0.628068 -0.125906 -17.372540 -80.496975 36.465270 107.903436 79.253498 103.915957 -15.156532 -24.172440 2.673423 -0.325554 -1.066094 -0.122195
-25.482555 50.652370 21.204310 162.595789 -4.017026 -1.770976 2.883940 5.625017 0.551670 0.105982 0.208816 -0.007688 0.173728 0.370112 -0.017188 2.520805 5.401309 -0.142029 3.815846 19.463916 0.483630 6.804667 0.404663 -0.288484 1.802722 6.671589 1.047799 -5.540180 -10.386361 -8.598296 -7.859515 -78.126207 28.712934 -2.846641 -5.442131 -38.535382 -5.478277 3.133347 -0.555853 20.619807 -8.324894 0.782115 38.773401 -77.365661 -57.764251 2.701568 2.193391 20.459568 -12.281494 -75.290708 9.372859 -143.218799 83.365461 -142.300567 -5.612952 -17.328871 -0.069429 -0.179049 0.631059 -0.115074 -17.229714 -80.485220 36.321709 107.930052 79.264594 103.925992 -15.169542 -24.177272 2.696878 -0.359265 -1.072027 -0.138292
